<mxfile host="www.draw.io" modified="2020-01-12T07:14:57.568Z" agent="Mozilla/5.0 (Windows NT 10.0; Win64; x64) AppleWebKit/537.36 (KHTML, like Gecko) Chrome/79.0.3945.88 Safari/537.36" etag="cpqVw0EmD3SqZO0WI1yC" version="12.5.1" type="github" pages="5">
  <diagram name="DispatcherServlet流程" id="13e1069c-82ec-6db2-03f1-153e76fe0fe0">
    <mxGraphModel dx="1306" dy="480" grid="1" gridSize="10" guides="1" tooltips="1" connect="1" arrows="1" fold="1" page="1" pageScale="1" pageWidth="1100" pageHeight="850" background="#ffffff" math="0" shadow="0">
      <root>
        <mxCell id="0"/>
        <mxCell id="1" parent="0"/>
        <mxCell id="a9xWwEZPDN51KVNsP4Po-1" value="DispatcherServlet" style="shape=umlLifeline;perimeter=lifelinePerimeter;whiteSpace=wrap;html=1;container=1;collapsible=0;recursiveResize=0;outlineConnect=0;" parent="1" vertex="1">
          <mxGeometry x="190" y="120" width="100" height="870" as="geometry"/>
        </mxCell>
        <mxCell id="a9xWwEZPDN51KVNsP4Po-5" value="" style="html=1;points=[];perimeter=orthogonalPerimeter;strokeColor=#000000;" parent="a9xWwEZPDN51KVNsP4Po-1" vertex="1">
          <mxGeometry x="45" y="90" width="10" height="720" as="geometry"/>
        </mxCell>
        <mxCell id="a9xWwEZPDN51KVNsP4Po-19" value="" style="html=1;points=[];perimeter=orthogonalPerimeter;strokeColor=#000000;" parent="a9xWwEZPDN51KVNsP4Po-1" vertex="1">
          <mxGeometry x="55" y="390" width="10" height="40" as="geometry"/>
        </mxCell>
        <mxCell id="a9xWwEZPDN51KVNsP4Po-20" value="applyPreHandle" style="edgeStyle=orthogonalEdgeStyle;html=1;align=left;spacingLeft=2;endArrow=block;rounded=0;entryX=1;entryY=0;" parent="a9xWwEZPDN51KVNsP4Po-1" target="a9xWwEZPDN51KVNsP4Po-19" edge="1">
          <mxGeometry relative="1" as="geometry">
            <mxPoint x="60" y="370" as="sourcePoint"/>
            <Array as="points">
              <mxPoint x="85" y="370"/>
            </Array>
          </mxGeometry>
        </mxCell>
        <mxCell id="a9xWwEZPDN51KVNsP4Po-24" value="" style="html=1;points=[];perimeter=orthogonalPerimeter;strokeColor=#000000;" parent="a9xWwEZPDN51KVNsP4Po-1" vertex="1">
          <mxGeometry x="55" y="580" width="10" height="40" as="geometry"/>
        </mxCell>
        <mxCell id="a9xWwEZPDN51KVNsP4Po-25" value="applyDefaultViewName" style="edgeStyle=orthogonalEdgeStyle;html=1;align=left;spacingLeft=2;endArrow=block;rounded=0;entryX=1;entryY=0;" parent="a9xWwEZPDN51KVNsP4Po-1" target="a9xWwEZPDN51KVNsP4Po-24" edge="1">
          <mxGeometry relative="1" as="geometry">
            <mxPoint x="60" y="560" as="sourcePoint"/>
            <Array as="points">
              <mxPoint x="85" y="560"/>
            </Array>
          </mxGeometry>
        </mxCell>
        <mxCell id="a9xWwEZPDN51KVNsP4Po-26" value="" style="html=1;points=[];perimeter=orthogonalPerimeter;strokeColor=#000000;" parent="a9xWwEZPDN51KVNsP4Po-1" vertex="1">
          <mxGeometry x="55" y="650" width="10" height="40" as="geometry"/>
        </mxCell>
        <mxCell id="a9xWwEZPDN51KVNsP4Po-27" value="applyPostHandle" style="edgeStyle=orthogonalEdgeStyle;html=1;align=left;spacingLeft=2;endArrow=block;rounded=0;entryX=1;entryY=0;" parent="a9xWwEZPDN51KVNsP4Po-1" target="a9xWwEZPDN51KVNsP4Po-26" edge="1">
          <mxGeometry relative="1" as="geometry">
            <mxPoint x="60" y="630" as="sourcePoint"/>
            <Array as="points">
              <mxPoint x="85" y="630"/>
            </Array>
          </mxGeometry>
        </mxCell>
        <mxCell id="a9xWwEZPDN51KVNsP4Po-29" value="" style="html=1;points=[];perimeter=orthogonalPerimeter;strokeColor=#000000;" parent="a9xWwEZPDN51KVNsP4Po-1" vertex="1">
          <mxGeometry x="55" y="740" width="10" height="40" as="geometry"/>
        </mxCell>
        <mxCell id="a9xWwEZPDN51KVNsP4Po-30" value="processDispatcherResult" style="edgeStyle=orthogonalEdgeStyle;html=1;align=left;spacingLeft=2;endArrow=block;rounded=0;entryX=1;entryY=0;" parent="a9xWwEZPDN51KVNsP4Po-1" target="a9xWwEZPDN51KVNsP4Po-29" edge="1">
          <mxGeometry relative="1" as="geometry">
            <mxPoint x="60" y="720" as="sourcePoint"/>
            <Array as="points">
              <mxPoint x="85" y="720"/>
            </Array>
          </mxGeometry>
        </mxCell>
        <mxCell id="a9xWwEZPDN51KVNsP4Po-4" value="&lt;pre style=&quot;font-size: 9.8pt&quot;&gt;&lt;span style=&quot;background-color: rgb(255 , 255 , 255)&quot;&gt;RequestMappingHandlerMapping&lt;/span&gt;&lt;/pre&gt;" style="shape=umlLifeline;perimeter=lifelinePerimeter;whiteSpace=wrap;html=1;container=1;collapsible=0;recursiveResize=0;outlineConnect=0;strokeColor=#000000;" parent="1" vertex="1">
          <mxGeometry x="400" y="120" width="210" height="860" as="geometry"/>
        </mxCell>
        <mxCell id="a9xWwEZPDN51KVNsP4Po-6" value="" style="html=1;points=[];perimeter=orthogonalPerimeter;strokeColor=#000000;" parent="a9xWwEZPDN51KVNsP4Po-4" vertex="1">
          <mxGeometry x="100" y="100" width="10" height="80" as="geometry"/>
        </mxCell>
        <mxCell id="a9xWwEZPDN51KVNsP4Po-7" value="getHandler" style="html=1;verticalAlign=bottom;endArrow=block;entryX=0;entryY=0;" parent="a9xWwEZPDN51KVNsP4Po-4" target="a9xWwEZPDN51KVNsP4Po-6" edge="1">
          <mxGeometry relative="1" as="geometry">
            <mxPoint x="-150" y="100" as="sourcePoint"/>
          </mxGeometry>
        </mxCell>
        <mxCell id="a9xWwEZPDN51KVNsP4Po-8" value="handler" style="html=1;verticalAlign=bottom;endArrow=open;dashed=1;endSize=8;exitX=0;exitY=0.95;" parent="a9xWwEZPDN51KVNsP4Po-4" source="a9xWwEZPDN51KVNsP4Po-6" edge="1">
          <mxGeometry relative="1" as="geometry">
            <mxPoint x="-150" y="176" as="targetPoint"/>
          </mxGeometry>
        </mxCell>
        <mxCell id="a9xWwEZPDN51KVNsP4Po-15" value="RequestMappingHandlerAdapter" style="shape=umlLifeline;perimeter=lifelinePerimeter;whiteSpace=wrap;html=1;container=1;collapsible=0;recursiveResize=0;outlineConnect=0;strokeColor=#000000;" parent="1" vertex="1">
          <mxGeometry x="750" y="120" width="210" height="860" as="geometry"/>
        </mxCell>
        <mxCell id="a9xWwEZPDN51KVNsP4Po-16" value="" style="html=1;points=[];perimeter=orthogonalPerimeter;strokeColor=#000000;" parent="a9xWwEZPDN51KVNsP4Po-15" vertex="1">
          <mxGeometry x="100" y="220" width="10" height="80" as="geometry"/>
        </mxCell>
        <mxCell id="a9xWwEZPDN51KVNsP4Po-17" value="getHandlerAdapter" style="html=1;verticalAlign=bottom;endArrow=block;entryX=0;entryY=0;" parent="a9xWwEZPDN51KVNsP4Po-15" target="a9xWwEZPDN51KVNsP4Po-16" edge="1">
          <mxGeometry relative="1" as="geometry">
            <mxPoint x="-500" y="220" as="sourcePoint"/>
          </mxGeometry>
        </mxCell>
        <mxCell id="a9xWwEZPDN51KVNsP4Po-18" value="handlerAdapter" style="html=1;verticalAlign=bottom;endArrow=open;dashed=1;endSize=8;exitX=0;exitY=0.95;" parent="a9xWwEZPDN51KVNsP4Po-15" source="a9xWwEZPDN51KVNsP4Po-16" edge="1">
          <mxGeometry relative="1" as="geometry">
            <mxPoint x="-500" y="296" as="targetPoint"/>
          </mxGeometry>
        </mxCell>
        <mxCell id="a9xWwEZPDN51KVNsP4Po-21" value="" style="html=1;points=[];perimeter=orthogonalPerimeter;strokeColor=#000000;" parent="a9xWwEZPDN51KVNsP4Po-15" vertex="1">
          <mxGeometry x="100" y="450" width="10" height="80" as="geometry"/>
        </mxCell>
        <mxCell id="a9xWwEZPDN51KVNsP4Po-23" value="modelAndView" style="html=1;verticalAlign=bottom;endArrow=open;dashed=1;endSize=8;exitX=0;exitY=0.95;" parent="a9xWwEZPDN51KVNsP4Po-15" source="a9xWwEZPDN51KVNsP4Po-21" edge="1">
          <mxGeometry relative="1" as="geometry">
            <mxPoint x="-500" y="526" as="targetPoint"/>
          </mxGeometry>
        </mxCell>
        <mxCell id="a9xWwEZPDN51KVNsP4Po-22" value="handle" style="html=1;verticalAlign=bottom;endArrow=block;entryX=0;entryY=0;" parent="1" target="a9xWwEZPDN51KVNsP4Po-21" edge="1">
          <mxGeometry relative="1" as="geometry">
            <mxPoint x="250" y="570" as="sourcePoint"/>
          </mxGeometry>
        </mxCell>
      </root>
    </mxGraphModel>
  </diagram>
  <diagram id="DYi0QYcpZWKpfsWuNM_6" name="HandlerMapping">
    <mxGraphModel dx="2133" dy="480" grid="1" gridSize="10" guides="1" tooltips="1" connect="1" arrows="1" fold="1" page="1" pageScale="1" pageWidth="827" pageHeight="1169" math="0" shadow="0">
      <root>
        <mxCell id="FQ-iDxbkQPsJMgWgAoTA-0"/>
        <mxCell id="FQ-iDxbkQPsJMgWgAoTA-1" parent="FQ-iDxbkQPsJMgWgAoTA-0"/>
        <mxCell id="X9DwUcMVPQKfdwdHgdAV-0" value="AbstractHandlerMapping" style="shape=umlLifeline;perimeter=lifelinePerimeter;whiteSpace=wrap;html=1;container=1;collapsible=0;recursiveResize=0;outlineConnect=0;" parent="FQ-iDxbkQPsJMgWgAoTA-1" vertex="1">
          <mxGeometry x="100" y="70" width="150" height="350" as="geometry"/>
        </mxCell>
        <mxCell id="X9DwUcMVPQKfdwdHgdAV-2" value="" style="html=1;points=[];perimeter=orthogonalPerimeter;" parent="X9DwUcMVPQKfdwdHgdAV-0" vertex="1">
          <mxGeometry x="70" y="100" width="10" height="150" as="geometry"/>
        </mxCell>
        <mxCell id="X9DwUcMVPQKfdwdHgdAV-1" value="AbstractHandlerMethodMapping" style="shape=umlLifeline;perimeter=lifelinePerimeter;whiteSpace=wrap;html=1;container=1;collapsible=0;recursiveResize=0;outlineConnect=0;" parent="FQ-iDxbkQPsJMgWgAoTA-1" vertex="1">
          <mxGeometry x="360" y="70" width="200" height="350" as="geometry"/>
        </mxCell>
        <mxCell id="X9DwUcMVPQKfdwdHgdAV-3" value="" style="html=1;points=[];perimeter=orthogonalPerimeter;" parent="X9DwUcMVPQKfdwdHgdAV-1" vertex="1">
          <mxGeometry x="95" y="150" width="10" height="80" as="geometry"/>
        </mxCell>
        <mxCell id="X9DwUcMVPQKfdwdHgdAV-5" value="return" style="html=1;verticalAlign=bottom;endArrow=open;dashed=1;endSize=8;exitX=0;exitY=0.95;" parent="X9DwUcMVPQKfdwdHgdAV-1" source="X9DwUcMVPQKfdwdHgdAV-3" edge="1">
          <mxGeometry relative="1" as="geometry">
            <mxPoint x="-180" y="226" as="targetPoint"/>
          </mxGeometry>
        </mxCell>
        <mxCell id="X9DwUcMVPQKfdwdHgdAV-4" value="getHandlerInternal" style="html=1;verticalAlign=bottom;endArrow=block;entryX=0;entryY=0;" parent="FQ-iDxbkQPsJMgWgAoTA-1" target="X9DwUcMVPQKfdwdHgdAV-3" edge="1">
          <mxGeometry relative="1" as="geometry">
            <mxPoint x="190" y="220" as="sourcePoint"/>
          </mxGeometry>
        </mxCell>
        <mxCell id="X9DwUcMVPQKfdwdHgdAV-6" value="RequestMappingHandlerMapping" style="shape=umlLifeline;perimeter=lifelinePerimeter;whiteSpace=wrap;html=1;container=1;collapsible=0;recursiveResize=0;outlineConnect=0;" parent="FQ-iDxbkQPsJMgWgAoTA-1" vertex="1">
          <mxGeometry x="-210" y="70" width="190" height="300" as="geometry"/>
        </mxCell>
        <mxCell id="X9DwUcMVPQKfdwdHgdAV-7" value="" style="html=1;points=[];perimeter=orthogonalPerimeter;" parent="X9DwUcMVPQKfdwdHgdAV-6" vertex="1">
          <mxGeometry x="90" y="100" width="10" height="120" as="geometry"/>
        </mxCell>
        <mxCell id="X9DwUcMVPQKfdwdHgdAV-8" value="getHandler" style="html=1;verticalAlign=bottom;endArrow=block;" parent="X9DwUcMVPQKfdwdHgdAV-6" edge="1">
          <mxGeometry width="80" relative="1" as="geometry">
            <mxPoint x="100" y="120" as="sourcePoint"/>
            <mxPoint x="375" y="120" as="targetPoint"/>
          </mxGeometry>
        </mxCell>
      </root>
    </mxGraphModel>
  </diagram>
  <diagram id="e4pRGmiD8bpTQhSISPsI" name="参数绑定">
    <mxGraphModel dx="1083" dy="480" grid="1" gridSize="10" guides="1" tooltips="1" connect="1" arrows="1" fold="1" page="1" pageScale="1" pageWidth="827" pageHeight="1169" math="0" shadow="0">
      <root>
        <mxCell id="CcU7Pg-fMefg6pxxdLct-0"/>
        <mxCell id="CcU7Pg-fMefg6pxxdLct-1" parent="CcU7Pg-fMefg6pxxdLct-0"/>
        <mxCell id="CcU7Pg-fMefg6pxxdLct-7" value="RequestMappingHandlerAdapter" style="shape=umlLifeline;perimeter=lifelinePerimeter;whiteSpace=wrap;html=1;container=1;collapsible=0;recursiveResize=0;outlineConnect=0;" vertex="1" parent="CcU7Pg-fMefg6pxxdLct-1">
          <mxGeometry x="50" y="90" width="200" height="1030" as="geometry"/>
        </mxCell>
        <mxCell id="CcU7Pg-fMefg6pxxdLct-8" value="" style="html=1;points=[];perimeter=orthogonalPerimeter;" vertex="1" parent="CcU7Pg-fMefg6pxxdLct-7">
          <mxGeometry x="95" y="90" width="10" height="900" as="geometry"/>
        </mxCell>
        <mxCell id="CcU7Pg-fMefg6pxxdLct-9" value="" style="html=1;points=[];perimeter=orthogonalPerimeter;" vertex="1" parent="CcU7Pg-fMefg6pxxdLct-7">
          <mxGeometry x="105" y="140" width="10" height="40" as="geometry"/>
        </mxCell>
        <mxCell id="CcU7Pg-fMefg6pxxdLct-10" value="handleInternal" style="edgeStyle=orthogonalEdgeStyle;html=1;align=left;spacingLeft=2;endArrow=block;rounded=0;entryX=1;entryY=0;" edge="1" target="CcU7Pg-fMefg6pxxdLct-9" parent="CcU7Pg-fMefg6pxxdLct-7">
          <mxGeometry relative="1" as="geometry">
            <mxPoint x="110" y="120" as="sourcePoint"/>
            <Array as="points">
              <mxPoint x="135" y="120"/>
            </Array>
          </mxGeometry>
        </mxCell>
        <mxCell id="CcU7Pg-fMefg6pxxdLct-34" value="" style="html=1;points=[];perimeter=orthogonalPerimeter;" vertex="1" parent="CcU7Pg-fMefg6pxxdLct-7">
          <mxGeometry x="105" y="940" width="10" height="40" as="geometry"/>
        </mxCell>
        <mxCell id="CcU7Pg-fMefg6pxxdLct-35" value="..." style="edgeStyle=orthogonalEdgeStyle;html=1;align=left;spacingLeft=2;endArrow=block;rounded=0;entryX=1;entryY=0;" edge="1" target="CcU7Pg-fMefg6pxxdLct-34" parent="CcU7Pg-fMefg6pxxdLct-7">
          <mxGeometry relative="1" as="geometry">
            <mxPoint x="110" y="920" as="sourcePoint"/>
            <Array as="points">
              <mxPoint x="135" y="920"/>
            </Array>
          </mxGeometry>
        </mxCell>
        <mxCell id="CcU7Pg-fMefg6pxxdLct-12" value="ServletInvoccableHandlerMethod" style="shape=umlLifeline;perimeter=lifelinePerimeter;whiteSpace=wrap;html=1;container=1;collapsible=0;recursiveResize=0;outlineConnect=0;" vertex="1" parent="CcU7Pg-fMefg6pxxdLct-1">
          <mxGeometry x="370" y="90" width="200" height="970" as="geometry"/>
        </mxCell>
        <mxCell id="CcU7Pg-fMefg6pxxdLct-13" value="" style="html=1;points=[];perimeter=orthogonalPerimeter;" vertex="1" parent="CcU7Pg-fMefg6pxxdLct-12">
          <mxGeometry x="95" y="220" width="10" height="750" as="geometry"/>
        </mxCell>
        <mxCell id="CcU7Pg-fMefg6pxxdLct-14" value="invokeAndHandle" style="html=1;verticalAlign=bottom;endArrow=block;entryX=0;entryY=0;" edge="1" target="CcU7Pg-fMefg6pxxdLct-13" parent="CcU7Pg-fMefg6pxxdLct-12">
          <mxGeometry relative="1" as="geometry">
            <mxPoint x="-210" y="220" as="sourcePoint"/>
          </mxGeometry>
        </mxCell>
        <mxCell id="CcU7Pg-fMefg6pxxdLct-16" value="" style="html=1;points=[];perimeter=orthogonalPerimeter;" vertex="1" parent="CcU7Pg-fMefg6pxxdLct-12">
          <mxGeometry x="105" y="270" width="10" height="40" as="geometry"/>
        </mxCell>
        <mxCell id="CcU7Pg-fMefg6pxxdLct-17" value="invokeForRequest" style="edgeStyle=orthogonalEdgeStyle;html=1;align=left;spacingLeft=2;endArrow=block;rounded=0;entryX=1;entryY=0;" edge="1" target="CcU7Pg-fMefg6pxxdLct-16" parent="CcU7Pg-fMefg6pxxdLct-12">
          <mxGeometry relative="1" as="geometry">
            <mxPoint x="110" y="250" as="sourcePoint"/>
            <Array as="points">
              <mxPoint x="135" y="250"/>
            </Array>
          </mxGeometry>
        </mxCell>
        <mxCell id="CcU7Pg-fMefg6pxxdLct-18" value="" style="html=1;points=[];perimeter=orthogonalPerimeter;" vertex="1" parent="CcU7Pg-fMefg6pxxdLct-12">
          <mxGeometry x="105" y="360" width="10" height="330" as="geometry"/>
        </mxCell>
        <mxCell id="CcU7Pg-fMefg6pxxdLct-19" value="getMethodArgumentValues" style="edgeStyle=orthogonalEdgeStyle;html=1;align=left;spacingLeft=2;endArrow=block;rounded=0;entryX=1;entryY=0;" edge="1" target="CcU7Pg-fMefg6pxxdLct-18" parent="CcU7Pg-fMefg6pxxdLct-12">
          <mxGeometry relative="1" as="geometry">
            <mxPoint x="110" y="340" as="sourcePoint"/>
            <Array as="points">
              <mxPoint x="135" y="340"/>
            </Array>
          </mxGeometry>
        </mxCell>
        <mxCell id="CcU7Pg-fMefg6pxxdLct-30" value="" style="html=1;points=[];perimeter=orthogonalPerimeter;" vertex="1" parent="CcU7Pg-fMefg6pxxdLct-12">
          <mxGeometry x="105" y="730" width="10" height="40" as="geometry"/>
        </mxCell>
        <mxCell id="CcU7Pg-fMefg6pxxdLct-31" value="doInvoke" style="edgeStyle=orthogonalEdgeStyle;html=1;align=left;spacingLeft=2;endArrow=block;rounded=0;entryX=1;entryY=0;" edge="1" target="CcU7Pg-fMefg6pxxdLct-30" parent="CcU7Pg-fMefg6pxxdLct-12">
          <mxGeometry relative="1" as="geometry">
            <mxPoint x="110" y="710" as="sourcePoint"/>
            <Array as="points">
              <mxPoint x="135" y="710"/>
            </Array>
          </mxGeometry>
        </mxCell>
        <mxCell id="CcU7Pg-fMefg6pxxdLct-32" value="" style="html=1;points=[];perimeter=orthogonalPerimeter;" vertex="1" parent="CcU7Pg-fMefg6pxxdLct-12">
          <mxGeometry x="105" y="830" width="10" height="40" as="geometry"/>
        </mxCell>
        <mxCell id="CcU7Pg-fMefg6pxxdLct-33" value="返回值处理" style="edgeStyle=orthogonalEdgeStyle;html=1;align=left;spacingLeft=2;endArrow=block;rounded=0;entryX=1;entryY=0;" edge="1" target="CcU7Pg-fMefg6pxxdLct-32" parent="CcU7Pg-fMefg6pxxdLct-12">
          <mxGeometry relative="1" as="geometry">
            <mxPoint x="110" y="810" as="sourcePoint"/>
            <Array as="points">
              <mxPoint x="135" y="810"/>
            </Array>
          </mxGeometry>
        </mxCell>
        <mxCell id="CcU7Pg-fMefg6pxxdLct-20" value="HandlerMethodArgumentResolverComposite" style="shape=umlLifeline;perimeter=lifelinePerimeter;whiteSpace=wrap;html=1;container=1;collapsible=0;recursiveResize=0;outlineConnect=0;" vertex="1" parent="CcU7Pg-fMefg6pxxdLct-1">
          <mxGeometry x="660" y="90" width="260" height="860" as="geometry"/>
        </mxCell>
        <mxCell id="CcU7Pg-fMefg6pxxdLct-21" value="" style="html=1;points=[];perimeter=orthogonalPerimeter;" vertex="1" parent="CcU7Pg-fMefg6pxxdLct-20">
          <mxGeometry x="125" y="420" width="10" height="260" as="geometry"/>
        </mxCell>
        <mxCell id="CcU7Pg-fMefg6pxxdLct-22" value="resolveArgument" style="html=1;verticalAlign=bottom;endArrow=block;entryX=0;entryY=0;" edge="1" target="CcU7Pg-fMefg6pxxdLct-21" parent="CcU7Pg-fMefg6pxxdLct-20">
          <mxGeometry relative="1" as="geometry">
            <mxPoint x="-170" y="420" as="sourcePoint"/>
          </mxGeometry>
        </mxCell>
        <mxCell id="CcU7Pg-fMefg6pxxdLct-23" value="arg" style="html=1;verticalAlign=bottom;endArrow=open;dashed=1;endSize=8;exitX=0;exitY=0.95;" edge="1" source="CcU7Pg-fMefg6pxxdLct-21" parent="CcU7Pg-fMefg6pxxdLct-20">
          <mxGeometry relative="1" as="geometry">
            <mxPoint x="-170" y="667" as="targetPoint"/>
          </mxGeometry>
        </mxCell>
        <mxCell id="CcU7Pg-fMefg6pxxdLct-24" value="RequestParamMethodArgumentResolver" style="shape=umlLifeline;perimeter=lifelinePerimeter;whiteSpace=wrap;html=1;container=1;collapsible=0;recursiveResize=0;outlineConnect=0;" vertex="1" parent="CcU7Pg-fMefg6pxxdLct-1">
          <mxGeometry x="1040" y="90" width="250" height="690" as="geometry"/>
        </mxCell>
        <mxCell id="CcU7Pg-fMefg6pxxdLct-25" value="" style="html=1;points=[];perimeter=orthogonalPerimeter;" vertex="1" parent="CcU7Pg-fMefg6pxxdLct-24">
          <mxGeometry x="120" y="450" width="10" height="170" as="geometry"/>
        </mxCell>
        <mxCell id="CcU7Pg-fMefg6pxxdLct-26" value="resolveArgument" style="html=1;verticalAlign=bottom;endArrow=block;entryX=0;entryY=0;" edge="1" target="CcU7Pg-fMefg6pxxdLct-25" parent="CcU7Pg-fMefg6pxxdLct-24">
          <mxGeometry relative="1" as="geometry">
            <mxPoint x="-230" y="450" as="sourcePoint"/>
          </mxGeometry>
        </mxCell>
        <mxCell id="CcU7Pg-fMefg6pxxdLct-27" value="arg" style="html=1;verticalAlign=bottom;endArrow=open;dashed=1;endSize=8;exitX=0;exitY=0.95;" edge="1" source="CcU7Pg-fMefg6pxxdLct-25" parent="CcU7Pg-fMefg6pxxdLct-24">
          <mxGeometry relative="1" as="geometry">
            <mxPoint x="-240" y="611" as="targetPoint"/>
          </mxGeometry>
        </mxCell>
        <mxCell id="CcU7Pg-fMefg6pxxdLct-28" value="" style="html=1;points=[];perimeter=orthogonalPerimeter;" vertex="1" parent="CcU7Pg-fMefg6pxxdLct-24">
          <mxGeometry x="130" y="510" width="10" height="40" as="geometry"/>
        </mxCell>
        <mxCell id="CcU7Pg-fMefg6pxxdLct-29" value="resolveName(从request中解析参数)" style="edgeStyle=orthogonalEdgeStyle;html=1;align=left;spacingLeft=2;endArrow=block;rounded=0;entryX=1;entryY=0;" edge="1" target="CcU7Pg-fMefg6pxxdLct-28" parent="CcU7Pg-fMefg6pxxdLct-24">
          <mxGeometry relative="1" as="geometry">
            <mxPoint x="135" y="490" as="sourcePoint"/>
            <Array as="points">
              <mxPoint x="160" y="490"/>
            </Array>
          </mxGeometry>
        </mxCell>
      </root>
    </mxGraphModel>
  </diagram>
  <diagram id="t4eBx3cLpazBAuL_0dNf" name="返回值处理">
    <mxGraphModel dx="843" dy="480" grid="1" gridSize="10" guides="1" tooltips="1" connect="1" arrows="1" fold="1" page="1" pageScale="1" pageWidth="827" pageHeight="1169" math="0" shadow="0">
      <root>
        <mxCell id="-hBMVlo1IGAwfd64rFqp-0"/>
        <mxCell id="-hBMVlo1IGAwfd64rFqp-1" parent="-hBMVlo1IGAwfd64rFqp-0"/>
        <mxCell id="fD-seLdUAXM0QMDbRy56-0" value="ServletInvocableHandlerAdapter" style="shape=umlLifeline;perimeter=lifelinePerimeter;whiteSpace=wrap;html=1;container=1;collapsible=0;recursiveResize=0;outlineConnect=0;" vertex="1" parent="-hBMVlo1IGAwfd64rFqp-1">
          <mxGeometry x="60" y="60" width="190" height="480" as="geometry"/>
        </mxCell>
        <mxCell id="fD-seLdUAXM0QMDbRy56-3" value="" style="html=1;points=[];perimeter=orthogonalPerimeter;" vertex="1" parent="fD-seLdUAXM0QMDbRy56-0">
          <mxGeometry x="90" y="100" width="10" height="140" as="geometry"/>
        </mxCell>
        <mxCell id="fD-seLdUAXM0QMDbRy56-1" value="HandlerMethodReturnValueHandlerComposite" style="shape=umlLifeline;perimeter=lifelinePerimeter;whiteSpace=wrap;html=1;container=1;collapsible=0;recursiveResize=0;outlineConnect=0;" vertex="1" parent="-hBMVlo1IGAwfd64rFqp-1">
          <mxGeometry x="340" y="60" width="257" height="480" as="geometry"/>
        </mxCell>
        <mxCell id="fD-seLdUAXM0QMDbRy56-6" value="" style="html=1;points=[];perimeter=orthogonalPerimeter;" vertex="1" parent="fD-seLdUAXM0QMDbRy56-1">
          <mxGeometry x="124" y="120" width="10" height="180" as="geometry"/>
        </mxCell>
        <mxCell id="fD-seLdUAXM0QMDbRy56-7" value="handleReturnValue" style="html=1;verticalAlign=bottom;endArrow=block;entryX=0;entryY=0;" edge="1" target="fD-seLdUAXM0QMDbRy56-6" parent="fD-seLdUAXM0QMDbRy56-1">
          <mxGeometry relative="1" as="geometry">
            <mxPoint x="-170" y="120" as="sourcePoint"/>
          </mxGeometry>
        </mxCell>
        <mxCell id="fD-seLdUAXM0QMDbRy56-9" value="" style="html=1;points=[];perimeter=orthogonalPerimeter;" vertex="1" parent="fD-seLdUAXM0QMDbRy56-1">
          <mxGeometry x="134" y="170" width="10" height="40" as="geometry"/>
        </mxCell>
        <mxCell id="fD-seLdUAXM0QMDbRy56-10" value="selectHandler" style="edgeStyle=orthogonalEdgeStyle;html=1;align=left;spacingLeft=2;endArrow=block;rounded=0;entryX=1;entryY=0;" edge="1" target="fD-seLdUAXM0QMDbRy56-9" parent="fD-seLdUAXM0QMDbRy56-1">
          <mxGeometry relative="1" as="geometry">
            <mxPoint x="139" y="150" as="sourcePoint"/>
            <Array as="points">
              <mxPoint x="164" y="150"/>
            </Array>
          </mxGeometry>
        </mxCell>
        <mxCell id="fD-seLdUAXM0QMDbRy56-2" value="HandlerMethodReturnValueHandler" style="shape=umlLifeline;perimeter=lifelinePerimeter;whiteSpace=wrap;html=1;container=1;collapsible=0;recursiveResize=0;outlineConnect=0;" vertex="1" parent="-hBMVlo1IGAwfd64rFqp-1">
          <mxGeometry x="727" y="60" width="203" height="480" as="geometry"/>
        </mxCell>
        <mxCell id="fD-seLdUAXM0QMDbRy56-11" value="" style="html=1;points=[];perimeter=orthogonalPerimeter;" vertex="1" parent="fD-seLdUAXM0QMDbRy56-2">
          <mxGeometry x="96.5" y="270" width="10" height="160" as="geometry"/>
        </mxCell>
        <mxCell id="fD-seLdUAXM0QMDbRy56-12" value="handleReturnValue" style="html=1;verticalAlign=bottom;endArrow=block;entryX=0;entryY=0;" edge="1" target="fD-seLdUAXM0QMDbRy56-11" parent="fD-seLdUAXM0QMDbRy56-2">
          <mxGeometry relative="1" as="geometry">
            <mxPoint x="-247" y="270" as="sourcePoint"/>
          </mxGeometry>
        </mxCell>
        <mxCell id="fD-seLdUAXM0QMDbRy56-19" value="" style="html=1;points=[];perimeter=orthogonalPerimeter;" vertex="1" parent="fD-seLdUAXM0QMDbRy56-2">
          <mxGeometry x="107" y="330" width="10" height="40" as="geometry"/>
        </mxCell>
        <mxCell id="fD-seLdUAXM0QMDbRy56-20" value="将返回值写入到&lt;br&gt;HttpOutputMessage" style="edgeStyle=orthogonalEdgeStyle;html=1;align=left;spacingLeft=2;endArrow=block;rounded=0;entryX=1;entryY=0;" edge="1" target="fD-seLdUAXM0QMDbRy56-19" parent="fD-seLdUAXM0QMDbRy56-2">
          <mxGeometry relative="1" as="geometry">
            <mxPoint x="112" y="310" as="sourcePoint"/>
            <Array as="points">
              <mxPoint x="137" y="310"/>
            </Array>
          </mxGeometry>
        </mxCell>
      </root>
    </mxGraphModel>
  </diagram>
  <diagram id="M6b_W__F7YxlrtPbswzX" name="异常处理">
    <mxGraphModel dx="1670" dy="480" grid="1" gridSize="10" guides="1" tooltips="1" connect="1" arrows="1" fold="1" page="1" pageScale="1" pageWidth="827" pageHeight="1169" math="0" shadow="0">
      <root>
        <mxCell id="OzLowTBxdxx2jE9feLvi-0"/>
        <mxCell id="OzLowTBxdxx2jE9feLvi-1" parent="OzLowTBxdxx2jE9feLvi-0"/>
        <mxCell id="OzLowTBxdxx2jE9feLvi-2" value="DispatcherServlet" style="shape=umlLifeline;perimeter=lifelinePerimeter;whiteSpace=wrap;html=1;container=1;collapsible=0;recursiveResize=0;outlineConnect=0;" vertex="1" parent="OzLowTBxdxx2jE9feLvi-1">
          <mxGeometry x="130" y="90" width="100" height="540" as="geometry"/>
        </mxCell>
        <mxCell id="OzLowTBxdxx2jE9feLvi-5" value="" style="html=1;points=[];perimeter=orthogonalPerimeter;" vertex="1" parent="OzLowTBxdxx2jE9feLvi-2">
          <mxGeometry x="45" y="100" width="10" height="390" as="geometry"/>
        </mxCell>
        <mxCell id="OzLowTBxdxx2jE9feLvi-12" value="" style="html=1;points=[];perimeter=orthogonalPerimeter;" vertex="1" parent="OzLowTBxdxx2jE9feLvi-2">
          <mxGeometry x="55" y="330" width="10" height="40" as="geometry"/>
        </mxCell>
        <mxCell id="OzLowTBxdxx2jE9feLvi-13" value="processDispatchResult" style="edgeStyle=orthogonalEdgeStyle;html=1;align=left;spacingLeft=2;endArrow=block;rounded=0;entryX=1;entryY=0;strokeColor=#000000;" edge="1" target="OzLowTBxdxx2jE9feLvi-12" parent="OzLowTBxdxx2jE9feLvi-2">
          <mxGeometry relative="1" as="geometry">
            <mxPoint x="60" y="310" as="sourcePoint"/>
            <Array as="points">
              <mxPoint x="85" y="310"/>
            </Array>
          </mxGeometry>
        </mxCell>
        <mxCell id="OzLowTBxdxx2jE9feLvi-14" value="" style="html=1;points=[];perimeter=orthogonalPerimeter;" vertex="1" parent="OzLowTBxdxx2jE9feLvi-2">
          <mxGeometry x="55" y="410" width="10" height="40" as="geometry"/>
        </mxCell>
        <mxCell id="OzLowTBxdxx2jE9feLvi-15" value="render" style="edgeStyle=orthogonalEdgeStyle;html=1;align=left;spacingLeft=2;endArrow=block;rounded=0;entryX=1;entryY=0;strokeColor=#000000;" edge="1" target="OzLowTBxdxx2jE9feLvi-14" parent="OzLowTBxdxx2jE9feLvi-2">
          <mxGeometry relative="1" as="geometry">
            <mxPoint x="60" y="390" as="sourcePoint"/>
            <Array as="points">
              <mxPoint x="85" y="390"/>
            </Array>
          </mxGeometry>
        </mxCell>
        <mxCell id="OzLowTBxdxx2jE9feLvi-3" value="HandlerAdapter" style="shape=umlLifeline;perimeter=lifelinePerimeter;whiteSpace=wrap;html=1;container=1;collapsible=0;recursiveResize=0;outlineConnect=0;" vertex="1" parent="OzLowTBxdxx2jE9feLvi-1">
          <mxGeometry x="360" y="90" width="100" height="540" as="geometry"/>
        </mxCell>
        <mxCell id="OzLowTBxdxx2jE9feLvi-6" value="" style="html=1;points=[];perimeter=orthogonalPerimeter;" vertex="1" parent="OzLowTBxdxx2jE9feLvi-3">
          <mxGeometry x="45" y="120" width="10" height="150" as="geometry"/>
        </mxCell>
        <mxCell id="OzLowTBxdxx2jE9feLvi-7" value="handle" style="html=1;verticalAlign=bottom;endArrow=block;entryX=0;entryY=0;" edge="1" target="OzLowTBxdxx2jE9feLvi-6" parent="OzLowTBxdxx2jE9feLvi-3">
          <mxGeometry relative="1" as="geometry">
            <mxPoint x="-170" y="120" as="sourcePoint"/>
          </mxGeometry>
        </mxCell>
        <mxCell id="OzLowTBxdxx2jE9feLvi-8" value="Exception" style="html=1;verticalAlign=bottom;endArrow=open;dashed=1;endSize=8;exitX=0;exitY=0.95;strokeColor=#FF3333;" edge="1" source="OzLowTBxdxx2jE9feLvi-6" parent="OzLowTBxdxx2jE9feLvi-3">
          <mxGeometry relative="1" as="geometry">
            <mxPoint x="-170" y="262" as="targetPoint"/>
          </mxGeometry>
        </mxCell>
        <mxCell id="OzLowTBxdxx2jE9feLvi-4" value="ServletInvocableHandlerMethod" style="shape=umlLifeline;perimeter=lifelinePerimeter;whiteSpace=wrap;html=1;container=1;collapsible=0;recursiveResize=0;outlineConnect=0;" vertex="1" parent="OzLowTBxdxx2jE9feLvi-1">
          <mxGeometry x="590" y="90" width="190" height="540" as="geometry"/>
        </mxCell>
        <mxCell id="OzLowTBxdxx2jE9feLvi-9" value="" style="html=1;points=[];perimeter=orthogonalPerimeter;" vertex="1" parent="OzLowTBxdxx2jE9feLvi-4">
          <mxGeometry x="90" y="150" width="10" height="80" as="geometry"/>
        </mxCell>
        <mxCell id="OzLowTBxdxx2jE9feLvi-10" value="invokeAndHandle" style="html=1;verticalAlign=bottom;endArrow=block;entryX=0;entryY=0;" edge="1" target="OzLowTBxdxx2jE9feLvi-9" parent="OzLowTBxdxx2jE9feLvi-4">
          <mxGeometry relative="1" as="geometry">
            <mxPoint x="-170" y="150" as="sourcePoint"/>
          </mxGeometry>
        </mxCell>
        <mxCell id="OzLowTBxdxx2jE9feLvi-11" value="Exception" style="html=1;verticalAlign=bottom;endArrow=open;dashed=1;endSize=8;exitX=0;exitY=0.95;fillColor=#f8cecc;strokeColor=#FF3333;" edge="1" source="OzLowTBxdxx2jE9feLvi-9" parent="OzLowTBxdxx2jE9feLvi-4">
          <mxGeometry relative="1" as="geometry">
            <mxPoint x="-170" y="226" as="targetPoint"/>
          </mxGeometry>
        </mxCell>
        <mxCell id="OzLowTBxdxx2jE9feLvi-16" value="通过&lt;br style=&quot;font-size: 11px ; white-space: nowrap&quot;&gt;&lt;span style=&quot;font-size: 11px ; white-space: nowrap ; background-color: rgb(255 , 255 , 255)&quot;&gt;HandlerExceptionResolver&lt;br&gt;来处理异常,&lt;br&gt;返回ModelAndView对象&lt;br&gt;&lt;/span&gt;" style="shape=note;whiteSpace=wrap;html=1;size=14;verticalAlign=top;align=left;spacingTop=-6;" vertex="1" parent="OzLowTBxdxx2jE9feLvi-1">
          <mxGeometry x="-30" y="400" width="170" height="70" as="geometry"/>
        </mxCell>
      </root>
    </mxGraphModel>
  </diagram>
</mxfile>
